<svg aria-hidden="true" style="position: absolute; width: 0; height: 0; overflow: hidden;" version="1.1" xmlns="http://www.w3.org/2000/svg" xmlns:xlink="http://www.w3.org/1999/xlink">
<defs>
<symbol id="icon-stop-watch" viewBox="0 0 8 8">
<title>stop-watch</title>
<path d="M3.75 4.021v-1.396c0-0.068 0.056-0.125 0.125-0.125 0.067 0 0.125 0.056 0.125 0.125v1.396c0.146 0.051 0.25 0.19 0.25 0.354s-0.104 0.302-0.25 0.354v0.396c0 0.068-0.056 0.125-0.125 0.125-0.067 0-0.125-0.056-0.125-0.125v-0.396c-0.146-0.051-0.25-0.19-0.25-0.354s0.104-0.302 0.25-0.354v0 0zM5.818 2.256l0.307-0.307-0.177-0.177 0.177-0.177 0.53 0.53-0.177 0.177-0.177-0.177-0.307 0.307c0.469 0.512 0.756 1.194 0.756 1.943 0 1.588-1.287 2.875-2.875 2.875s-2.875-1.287-2.875-2.875c0-1.546 1.22-2.807 2.75-2.872v-0.503h-0.25v-0.25h0.75v0.25h-0.25v0.503c0.7 0.030 1.335 0.31 1.818 0.753zM3.875 7c1.45 0 2.625-1.175 2.625-2.625s-1.175-2.625-2.625-2.625c-1.45 0-2.625 1.175-2.625 2.625s1.175 2.625 2.625 2.625v0zM3.875 4.5c0.069 0 0.125-0.056 0.125-0.125s-0.056-0.125-0.125-0.125c-0.069 0-0.125 0.056-0.125 0.125s0.056 0.125 0.125 0.125v0z"></path>
</symbol>
<symbol id="icon-infinity" viewBox="0 0 8 8">
<title>infinity</title>
<path d="M5.478 2.865c-0.384 0-0.746 0.15-1.012 0.415l-0.465 0.447-0.458-0.44c-0.272-0.272-0.634-0.422-1.018-0.422s-0.746 0.15-1.018 0.422c-0.272 0.272-0.422 0.633-0.422 1.018s0.15 0.746 0.422 1.018c0.271 0.272 0.633 0.422 1.018 0.422s0.746-0.15 1.012-0.416l0.465-0.446 0.459 0.44c0.272 0.272 0.634 0.422 1.018 0.422s0.746-0.15 1.018-0.422c0.272-0.271 0.422-0.633 0.422-1.018s-0.15-0.746-0.422-1.018c-0.272-0.272-0.634-0.421-1.018-0.421zM2.952 4.734c-0.229 0.229-0.628 0.229-0.857 0-0.115-0.115-0.178-0.267-0.178-0.428s0.063-0.314 0.178-0.429c0.114-0.115 0.266-0.178 0.428-0.178s0.314 0.063 0.435 0.184l0.44 0.423-0.447 0.428zM5.906 4.734c-0.229 0.23-0.622 0.235-0.863-0.006l-0.44-0.423 0.446-0.428c0.229-0.229 0.629-0.229 0.858-0.001 0.115 0.115 0.178 0.267 0.178 0.429s-0.063 0.315-0.178 0.429z"></path>
</symbol>
</defs>
</svg>
