<svg aria-hidden="true" style="position: absolute; width: 0; height: 0; overflow: hidden;" version="1.1" xmlns="http://www.w3.org/2000/svg" xmlns:xlink="http://www.w3.org/1999/xlink">
<defs>
<symbol id="icon-x" viewBox="0 0 8 8">
<title>x</title>
<path d="M4.467 4l1.767-1.767c0.133-0.133 0.133-0.333 0-0.467s-0.333-0.133-0.467 0l-1.767 1.767-1.767-1.767c-0.133-0.133-0.333-0.133-0.467 0s-0.133 0.333 0 0.467l1.767 1.767-1.767 1.767c-0.133 0.133-0.133 0.333 0 0.467 0.067 0.067 0.133 0.1 0.233 0.1s0.167-0.033 0.233-0.1l1.767-1.767 1.767 1.767c0.067 0.067 0.167 0.1 0.233 0.1s0.167-0.033 0.233-0.1c0.133-0.133 0.133-0.333 0-0.467l-1.767-1.767z"></path>
</symbol>
<symbol id="icon-cart" viewBox="0 0 8 8">
<title>cart</title>
<path d="M3 7.25c0 0.414-0.336 0.75-0.75 0.75s-0.75-0.336-0.75-0.75c0-0.414 0.336-0.75 0.75-0.75s0.75 0.336 0.75 0.75z"></path>
<path d="M8 7.25c0 0.414-0.336 0.75-0.75 0.75s-0.75-0.336-0.75-0.75c0-0.414 0.336-0.75 0.75-0.75s0.75 0.336 0.75 0.75z"></path>
<path d="M8 4v-3h-6c0-0.276-0.224-0.5-0.5-0.5h-1.5v0.5h1l0.376 3.219c-0.229 0.183-0.376 0.465-0.376 0.781 0 0.552 0.448 1 1 1h6v-0.5h-6c-0.276 0-0.5-0.224-0.5-0.5 0-0.002 0-0.003 0-0.005l6.5-0.995z"></path>
</symbol>
<symbol id="icon-stopwatch" viewBox="0 0 8 8">
<title>stopwatch</title>
<path d="M4 1.509v-0.509h1v-0.5c0-0.276-0.224-0.5-0.5-0.5h-1.5c-0.276 0-0.5 0.224-0.5 0.5v0.5h1v0.509c-1.678 0.128-3 1.53-3 3.241 0 1.795 1.455 3.25 3.25 3.25s3.25-1.455 3.25-3.25c0-1.711-1.322-3.113-3-3.241zM5.518 6.518c-0.472 0.472-1.1 0.732-1.768 0.732s-1.296-0.26-1.768-0.732c-0.472-0.472-0.732-1.1-0.732-1.768s0.26-1.296 0.732-1.768c0.453-0.453 1.050-0.711 1.688-0.731l-0.169 2.453c-0.015 0.205 0.097 0.295 0.249 0.295s0.263-0.090 0.249-0.295l-0.169-2.453c0.638 0.020 1.235 0.277 1.688 0.731 0.472 0.472 0.732 1.1 0.732 1.768s-0.26 1.296-0.732 1.768z"></path>
</symbol>
<symbol id="icon-user" viewBox="0 0 8 8">
<title>user</title>
<path d="M4.5 5.52v-0.412c0.551-0.31 1-1.084 1-1.858 0-1.243 0-2.25-1.5-2.25s-1.5 1.007-1.5 2.25c0 0.774 0.449 1.548 1 1.858v0.412c-1.696 0.139-3 0.972-3 1.98h7c0-1.008-1.304-1.841-3-1.98z"></path>
</symbol>
<symbol id="icon-spoon-knife" viewBox="0 0 8 8">
<title>spoon-knife</title>
<path d="M1.75 0c-0.828 0-1.5 0.783-1.5 1.75 0 0.828 0.492 1.521 1.154 1.703l-0.248 4.048c-0.017 0.274 0.194 0.499 0.469 0.499h0.25c0.275 0 0.486-0.225 0.469-0.499l-0.248-4.048c0.662-0.182 1.154-0.876 1.154-1.703 0-0.967-0.672-1.75-1.5-1.75zM6.792 0l-0.417 2.5h-0.313l-0.208-2.5h-0.208l-0.208 2.5h-0.313l-0.417-2.5h-0.208v3.25c0 0.138 0.112 0.25 0.25 0.25h0.651l-0.245 4.001c-0.017 0.274 0.194 0.499 0.469 0.499h0.25c0.275 0 0.486-0.225 0.469-0.499l-0.245-4.001h0.651c0.138 0 0.25-0.112 0.25-0.25v-3.25h-0.208z"></path>
</symbol>
<symbol id="icon-star-full" viewBox="0 0 8 8">
<title>star-full</title>
<path d="M8 3.102l-2.764-0.402-1.236-2.505-1.236 2.505-2.764 0.402 2 1.95-0.472 2.753 2.472-1.3 2.472 1.3-0.472-2.753 2-1.95z"></path>
</symbol>
<symbol id="icon-checkmark" viewBox="0 0 8 8">
<title>checkmark</title>
<path d="M6.75 1l-3.75 3.75-1.75-1.75-1.25 1.25 3 3 5-5z"></path>
</symbol>
<symbol id="icon-infinite" viewBox="0 0 8 8">
<title>infinite</title>
<path d="M6.125 5.875c-0.501 0-0.972-0.195-1.326-0.549l-0.799-0.799-0.799 0.799c-0.354 0.354-0.825 0.549-1.326 0.549s-0.972-0.195-1.326-0.549c-0.354-0.354-0.549-0.825-0.549-1.326s0.195-0.972 0.549-1.326c0.354-0.354 0.825-0.549 1.326-0.549s0.972 0.195 1.326 0.549l0.799 0.799 0.799-0.799c0.354-0.354 0.825-0.549 1.326-0.549s0.972 0.195 1.326 0.549c0.354 0.354 0.549 0.825 0.549 1.326s-0.195 0.972-0.549 1.326c-0.354 0.354-0.825 0.549-1.326 0.549zM5.326 4.799c0.213 0.213 0.497 0.331 0.799 0.331s0.586-0.118 0.799-0.331c0.213-0.213 0.331-0.497 0.331-0.799s-0.118-0.586-0.331-0.799c-0.213-0.213-0.497-0.331-0.799-0.331s-0.586 0.118-0.799 0.331l-0.799 0.799 0.799 0.799zM1.875 2.87c-0.302 0-0.586 0.118-0.799 0.331s-0.331 0.497-0.331 0.799c0 0.302 0.118 0.586 0.331 0.799s0.497 0.331 0.799 0.331c0.302 0 0.586-0.118 0.799-0.331l0.799-0.799-0.799-0.799c-0.213-0.213-0.497-0.331-0.799-0.331v0z"></path>
</symbol>
<symbol id="icon-google-plus" viewBox="0 0 8 8">
<title>google-plus</title>
<path d="M2.545 3.573v0.873h1.444c-0.058 0.375-0.436 1.098-1.444 1.098-0.869 0-1.578-0.72-1.578-1.608s0.709-1.608 1.578-1.608c0.495 0 0.825 0.211 1.014 0.392l0.691-0.666c-0.444-0.414-1.019-0.666-1.705-0.666-1.408 0.002-2.545 1.139-2.545 2.547s1.137 2.545 2.545 2.545c1.469 0 2.444-1.033 2.444-2.487 0-0.167-0.019-0.295-0.041-0.422h-2.403z"></path>
<path d="M8 3.5h-0.75v-0.75h-0.75v0.75h-0.75v0.75h0.75v0.75h0.75v-0.75h0.75z"></path>
</symbol>
<symbol id="icon-facebook" viewBox="0 0 8 8">
<title>facebook</title>
<path d="M4.75 1.5h1.25v-1.5h-1.25c-0.965 0-1.75 0.785-1.75 1.75v0.75h-1v1.5h1v4h1.5v-4h1.25l0.25-1.5h-1.5v-0.75c0-0.136 0.114-0.25 0.25-0.25z"></path>
</symbol>
<symbol id="icon-instagram" viewBox="0 0 8 8">
<title>instagram</title>
<path d="M4 0.72c1.069 0 1.195 0.005 1.616 0.023 0.391 0.017 0.602 0.083 0.742 0.138 0.186 0.072 0.32 0.159 0.459 0.298 0.141 0.141 0.227 0.273 0.3 0.459 0.055 0.141 0.12 0.353 0.138 0.742 0.019 0.422 0.023 0.548 0.023 1.616s-0.005 1.195-0.023 1.616c-0.017 0.391-0.083 0.602-0.138 0.742-0.072 0.186-0.159 0.32-0.298 0.459-0.141 0.141-0.273 0.227-0.459 0.3-0.141 0.055-0.353 0.12-0.742 0.138-0.422 0.019-0.548 0.023-1.616 0.023s-1.195-0.005-1.616-0.023c-0.391-0.017-0.602-0.083-0.742-0.138-0.186-0.072-0.32-0.159-0.459-0.298-0.141-0.141-0.227-0.273-0.3-0.459-0.055-0.141-0.12-0.353-0.137-0.742-0.019-0.422-0.023-0.548-0.023-1.616s0.005-1.195 0.023-1.616c0.017-0.391 0.083-0.602 0.137-0.742 0.072-0.186 0.159-0.32 0.298-0.459 0.141-0.141 0.273-0.227 0.459-0.3 0.141-0.055 0.353-0.12 0.742-0.137 0.42-0.019 0.547-0.023 1.616-0.023zM4 0c-1.086 0-1.222 0.005-1.648 0.023-0.425 0.019-0.717 0.087-0.97 0.186-0.264 0.103-0.488 0.239-0.709 0.463-0.223 0.222-0.359 0.445-0.463 0.708-0.098 0.255-0.167 0.545-0.186 0.97-0.019 0.428-0.023 0.564-0.023 1.65s0.005 1.222 0.023 1.648c0.019 0.425 0.087 0.717 0.186 0.97 0.103 0.264 0.239 0.487 0.463 0.709 0.222 0.222 0.445 0.359 0.708 0.461 0.255 0.098 0.545 0.167 0.97 0.186 0.427 0.019 0.563 0.023 1.648 0.023s1.222-0.005 1.648-0.023c0.425-0.019 0.717-0.088 0.97-0.186 0.263-0.102 0.486-0.239 0.708-0.461s0.359-0.445 0.461-0.708c0.098-0.255 0.167-0.545 0.186-0.97 0.019-0.427 0.023-0.563 0.023-1.648s-0.005-1.222-0.023-1.648c-0.019-0.425-0.088-0.717-0.186-0.97-0.098-0.266-0.234-0.489-0.458-0.711-0.222-0.222-0.445-0.359-0.708-0.461-0.255-0.098-0.545-0.167-0.97-0.186-0.428-0.020-0.564-0.025-1.65-0.025v0z"></path>
<path d="M4 1.945c-1.134 0-2.055 0.92-2.055 2.055s0.92 2.055 2.055 2.055 2.055-0.92 2.055-2.055c0-1.134-0.92-2.055-2.055-2.055zM4 5.333c-0.736 0-1.333-0.597-1.333-1.333s0.597-1.333 1.333-1.333c0.736 0 1.333 0.597 1.333 1.333s-0.597 1.333-1.333 1.333z"></path>
<path d="M6.616 1.864c0 0.265-0.215 0.48-0.48 0.48s-0.48-0.215-0.48-0.48c0-0.265 0.215-0.48 0.48-0.48s0.48 0.215 0.48 0.48z"></path>
</symbol>
<symbol id="icon-twitter" viewBox="0 0 8 8">
<title>twitter</title>
<path d="M8 1.769c-0.294 0.131-0.611 0.219-0.942 0.258 0.339-0.203 0.598-0.525 0.722-0.908-0.317 0.188-0.669 0.325-1.042 0.398-0.3-0.319-0.727-0.517-1.198-0.517-0.906 0-1.641 0.734-1.641 1.641 0 0.128 0.014 0.253 0.042 0.373-1.364-0.069-2.573-0.722-3.383-1.716-0.141 0.242-0.222 0.525-0.222 0.825 0 0.569 0.289 1.072 0.73 1.366-0.269-0.008-0.522-0.083-0.744-0.205 0 0.006 0 0.014 0 0.020 0 0.795 0.566 1.459 1.317 1.609-0.137 0.037-0.283 0.058-0.433 0.058-0.106 0-0.208-0.011-0.309-0.030 0.209 0.652 0.816 1.127 1.533 1.141-0.563 0.441-1.269 0.703-2.039 0.703-0.133 0-0.263-0.008-0.392-0.023 0.728 0.467 1.591 0.737 2.517 0.737 3.019 0 4.67-2.502 4.67-4.67 0-0.072-0.002-0.142-0.005-0.212 0.32-0.23 0.598-0.519 0.819-0.848z"></path>
</symbol>
</defs>
</svg>
